<svg xmlns="http://www.w3.org/2000/svg" version="1.1" width="1000px" height="134px" viewBox="0 0 1000 134">
<title>Problem 1.8</title>
<desc>-3;0,5;2 ge 0</desc>
<g fill="black" stroke="black">
  	<path d="M0,60 h990" stroke-width="5"/>
  <path fill="lightgray" stroke="black" stroke-width="5" d="M150,60 c-80,60 130,60 -2000,0" />
  <path fill="lightgray" stroke="black" stroke-width="5" d="M150,60 c40,-75 410,-75 450,0" />
  <path fill="lightgray" stroke="black" stroke-width="5" d="M600,60 c20,60 130,60 150,0" />
  <path fill="lightgray" stroke="black" stroke-width="5" d="M750,60 c20,-75 40,-75 2000,0" />
  <circle cx="150" cy="60" r="6" fill="white" stroke-width="2"/>
  <circle cx="600" cy="60" r="6" fill="white" stroke-width="2"/>
  <circle cx="750" cy="60" r="6"/>
  <path d="M980,60 l-10,-10 30,10 -30,10 z" />
</g>
<g fill="#000" font-size="30">
  <text x="132" y="115">-3</text>
  <text x="580" y="115">0,5</text>
  <text x="742" y="115">2</text>
  <text x="980" y="115" font-style="italic">x</text>
</g>
<g fill="#000" font-size="65">
  <text x="35" y="100">&#8722;</text>
  <text x="358" y="52">+</text>
  <text x="656" y="100">&#8722;</text>
  <text x="860" y="52">+</text>
</g>
</svg>
